<mxfile host="app.diagrams.net" agent="Mozilla/5.0 (Windows NT 10.0; Win64; x64) AppleWebKit/537.36 (KHTML, like Gecko) Chrome/137.0.0.0 Safari/537.36 Edg/137.0.0.0" version="27.1.6">
  <diagram name="第 1 页" id="sRUMoYeeOWUoiuIW_q8p">
    <mxGraphModel dx="746" dy="426" grid="1" gridSize="10" guides="1" tooltips="1" connect="1" arrows="1" fold="1" page="1" pageScale="1" pageWidth="827" pageHeight="1169" math="0" shadow="0">
      <root>
        <mxCell id="0" />
        <mxCell id="1" parent="0" />
        <mxCell id="8TFhTKohf9FG4tqeOG-6-1" value="" style="endArrow=classic;html=1;rounded=0;strokeWidth=1;" edge="1" parent="1">
          <mxGeometry width="50" height="50" relative="1" as="geometry">
            <mxPoint x="100" y="230" as="sourcePoint" />
            <mxPoint x="460" y="230" as="targetPoint" />
          </mxGeometry>
        </mxCell>
        <mxCell id="8TFhTKohf9FG4tqeOG-6-2" value="" style="endArrow=oval;html=1;rounded=0;strokeWidth=1;targetPerimeterSpacing=0;startArrow=oval;startFill=1;endFill=1;" edge="1" parent="1">
          <mxGeometry width="50" height="50" relative="1" as="geometry">
            <mxPoint x="249" y="230" as="sourcePoint" />
            <mxPoint x="249" y="160" as="targetPoint" />
          </mxGeometry>
        </mxCell>
        <mxCell id="8TFhTKohf9FG4tqeOG-6-3" value="Text" style="text;html=1;align=center;verticalAlign=middle;resizable=0;points=[];autosize=1;strokeColor=none;fillColor=none;" vertex="1" parent="1">
          <mxGeometry x="530" y="610" width="50" height="30" as="geometry" />
        </mxCell>
        <mxCell id="8TFhTKohf9FG4tqeOG-6-5" value="&lt;font style=&quot;font-size: 10px;&quot;&gt;1991&lt;/font&gt;" style="text;html=1;align=center;verticalAlign=middle;resizable=0;points=[];autosize=1;strokeColor=none;fillColor=none;" vertex="1" parent="1">
          <mxGeometry x="223" y="230" width="50" height="30" as="geometry" />
        </mxCell>
        <mxCell id="8TFhTKohf9FG4tqeOG-6-7" value="" style="endArrow=oval;html=1;rounded=0;strokeWidth=1;targetPerimeterSpacing=0;startArrow=oval;startFill=1;endFill=1;" edge="1" parent="1">
          <mxGeometry width="50" height="50" relative="1" as="geometry">
            <mxPoint x="276" y="230" as="sourcePoint" />
            <mxPoint x="276" y="160" as="targetPoint" />
          </mxGeometry>
        </mxCell>
        <mxCell id="8TFhTKohf9FG4tqeOG-6-8" value="&lt;font style=&quot;font-size: 10px;&quot;&gt;1993&lt;/font&gt;" style="text;html=1;align=center;verticalAlign=middle;resizable=0;points=[];autosize=1;strokeColor=none;fillColor=none;" vertex="1" parent="1">
          <mxGeometry x="250" y="230" width="50" height="30" as="geometry" />
        </mxCell>
        <mxCell id="8TFhTKohf9FG4tqeOG-6-9" value="" style="endArrow=oval;html=1;rounded=0;strokeWidth=1;targetPerimeterSpacing=0;startArrow=oval;startFill=1;endFill=1;" edge="1" parent="1">
          <mxGeometry width="50" height="50" relative="1" as="geometry">
            <mxPoint x="310" y="230" as="sourcePoint" />
            <mxPoint x="310" y="160" as="targetPoint" />
          </mxGeometry>
        </mxCell>
        <mxCell id="8TFhTKohf9FG4tqeOG-6-10" value="&lt;font style=&quot;font-size: 10px;&quot;&gt;1996&lt;/font&gt;" style="text;html=1;align=center;verticalAlign=middle;resizable=0;points=[];autosize=1;strokeColor=none;fillColor=none;" vertex="1" parent="1">
          <mxGeometry x="285" y="230" width="50" height="30" as="geometry" />
        </mxCell>
        <mxCell id="8TFhTKohf9FG4tqeOG-6-11" value="" style="endArrow=oval;html=1;rounded=0;strokeWidth=1;targetPerimeterSpacing=0;startArrow=oval;startFill=1;endFill=1;" edge="1" parent="1">
          <mxGeometry width="50" height="50" relative="1" as="geometry">
            <mxPoint x="422" y="230" as="sourcePoint" />
            <mxPoint x="422" y="160" as="targetPoint" />
          </mxGeometry>
        </mxCell>
        <mxCell id="8TFhTKohf9FG4tqeOG-6-12" value="&lt;font style=&quot;font-size: 10px;&quot;&gt;2023&lt;/font&gt;" style="text;html=1;align=center;verticalAlign=middle;resizable=0;points=[];autosize=1;strokeColor=none;fillColor=none;" vertex="1" parent="1">
          <mxGeometry x="396" y="230" width="50" height="30" as="geometry" />
        </mxCell>
        <mxCell id="8TFhTKohf9FG4tqeOG-6-13" value="" style="endArrow=oval;html=1;rounded=0;strokeWidth=1;targetPerimeterSpacing=0;startArrow=oval;startFill=1;endFill=1;" edge="1" parent="1">
          <mxGeometry width="50" height="50" relative="1" as="geometry">
            <mxPoint x="155" y="230" as="sourcePoint" />
            <mxPoint x="155" y="160" as="targetPoint" />
          </mxGeometry>
        </mxCell>
        <mxCell id="8TFhTKohf9FG4tqeOG-6-14" value="&lt;font style=&quot;font-size: 10px;&quot;&gt;1967&lt;/font&gt;" style="text;html=1;align=center;verticalAlign=middle;resizable=0;points=[];autosize=1;strokeColor=none;fillColor=none;" vertex="1" parent="1">
          <mxGeometry x="130" y="230" width="50" height="30" as="geometry" />
        </mxCell>
        <mxCell id="8TFhTKohf9FG4tqeOG-6-15" value="" style="endArrow=oval;html=1;rounded=0;strokeWidth=1;targetPerimeterSpacing=0;startArrow=oval;startFill=1;endFill=1;" edge="1" parent="1">
          <mxGeometry width="50" height="50" relative="1" as="geometry">
            <mxPoint x="205" y="230" as="sourcePoint" />
            <mxPoint x="205" y="160" as="targetPoint" />
          </mxGeometry>
        </mxCell>
        <mxCell id="8TFhTKohf9FG4tqeOG-6-16" value="&lt;font style=&quot;font-size: 10px;&quot;&gt;1980&lt;/font&gt;" style="text;html=1;align=center;verticalAlign=middle;resizable=0;points=[];autosize=1;strokeColor=none;fillColor=none;" vertex="1" parent="1">
          <mxGeometry x="180" y="230" width="50" height="30" as="geometry" />
        </mxCell>
      </root>
    </mxGraphModel>
  </diagram>
</mxfile>
